<?xml version="1.0" encoding="utf-8"?>
<!-- Generator: Adobe Illustrator 19.1.1, SVG Export Plug-In . SVG Version: 6.00 Build 0)  -->
<svg version="1.1" id="Calque_1" xmlns="http://www.w3.org/2000/svg" xmlns:xlink="http://www.w3.org/1999/xlink" x="0px" y="0px"
	 viewBox="66 -49.7 431 398.7" style="enable-background:new 66 -49.7 431 398.7;" xml:space="preserve">
<style type="text/css">
	.st0{fill:#31CDFF;}
</style>
<g>
	<g>
		<g>
			<path class="st0" d="M275.5,310.2c-91.5,0-166-74.5-166-166S184-21.7,275.5-21.7s166,74.5,166,166c0,38.2-13.3,75.5-37.5,105
				l-5.4-4.4c23.2-28.3,35.9-64,35.9-100.6c0-87.7-71.3-159-159-159s-159,71.3-159,158.9c0,87.7,71.3,159,159,159
				c30.5,0,60.1-8.7,85.7-25l3.8,5.9C338.3,301.2,307.3,310.2,275.5,310.2z"/>
		</g>
	</g>
	<g>
		<g>
			<path class="st0" d="M208,215.9c-12.9,0.5-24.5-3-34.2-11.9c-7.6-7-12.3-15.6-13.8-25.8c-0.8-1.5,0.3-3.3-0.8-4.7
				c0-2.4,0-4.8,0-7.3c0.8-13.8,7.4-24.2,18.3-32.2c3.2-2.3,6.8-4,10.5-5.4c2.5-0.9,3.9-2.4,4.8-5c4.7-13.2,19.4-24,35.6-21.4
				c3.5,0.6,5.6-0.5,7.6-3.3c9.2-12.9,21.7-21.2,36.7-26.2c4.5-1.5,9.2-0.9,13.8-2c4.8,0,9.7,0,14.5,0c14.1,0.5,26.4,5.8,37.2,14.7
				c14.2,11.7,23.2,26.5,25.7,44.9c0.6,4.3,2.1,6.8,6.2,8.9c13,6.4,20.6,16.8,21.7,31.5c0,3.3,0,6.7,0,10
				c-2.1,8.1-4.7,15.8-10.6,22.1c-8.2,8.8-18.5,12.8-30.3,13.2c-2.5,0.1-4.6-0.7-4.7-3.7c0-3.1,2.2-3.6,4.6-3.7
				c10.8-0.3,19.9-4.3,26.8-13c13.3-16.9,5.9-43.2-14.5-50.1c-4.9-1.7-6.7-4-7.1-9.2c-2.6-32.2-28-56.9-60.3-57.9
				c-22.9-0.7-41.3,8.9-54.4,28c-4.3,6.3-4.2,6.4-11.7,4.6c-13.1-3.1-26.3,5-29.4,18.3c-0.8,3.5-2.5,5.3-6,6.3
				c-16.1,4.7-26.3,17-27.3,34c-0.8,13.7,6.2,27.8,21.2,35.2c5.7,2.8,11.8,3.5,18,3.7c2.9,0.1,5.8,0.1,8.6,0
				c3.6-0.1,5.3,1.5,5.3,5.2"/>
		</g>
		<g>
			<path class="st0" d="M159.2,173.4c1.3,1.4,1.1,3.1,0.8,4.7c-0.3,0-0.5,0-0.8-0.2C159.2,176.5,159.2,174.9,159.2,173.4z"/>
		</g>
		<g>
			<path class="st0" d="M296.3,90.7c14,1.1,25.8,6.7,35.2,17.3c1.7,1.9,2.6,3.9,0.5,6c-2.1,2.1-4.2,1-5.8-0.8
				c-8.5-9.5-19-14.6-31.8-15c-2.6-0.1-4.6-1.1-4.3-4C290.4,90,293.6,90.7,296.3,90.7z"/>
		</g>
		<g>
			<path class="st0" d="M343.7,137.1c0.1,1.6,0.1,2.3,0.2,3.1c0.1,2.3-1.1,3.8-3.3,4c-2.3,0.2-3.8-1.3-3.9-3.5
				c-0.3-5.1-1.4-10.1-2.8-15c-0.6-2.2-0.2-4.3,2.4-5c2.5-0.6,4,0.8,4.7,3.1C342.2,128.4,343.7,133,343.7,137.1z"/>
		</g>
	</g>
	<g>
		<path class="st0" d="M275.5,211.8c-20.2,0-36.7-16.5-36.7-36.7s16.5-36.7,36.7-36.7s36.7,16.5,36.7,36.7S295.7,211.8,275.5,211.8z
			 M275.5,146.4c-15.8,0-28.7,12.9-28.7,28.7s12.9,28.7,28.7,28.7s28.7-12.9,28.7-28.7S291.3,146.4,275.5,146.4z"/>
	</g>
	<g>
		<g>
			<g>
				<path class="st0" d="M284.7,210.4c6.4,11.2,12.8,22.4,19.2,33.6c3.2,5.6,11.8,0.6,8.6-5c-6.4-11.2-12.8-22.4-19.2-33.6
					C290.1,199.8,281.5,204.8,284.7,210.4L284.7,210.4z"/>
			</g>
		</g>
	</g>
	<g>
		<path class="st0" d="M300.1,171.7c0.2,1.4,0.3,2,0.4,2.7c0.3,2.1-0.5,3.5-2.2,3.8c-1.7,0.4-3-0.8-3.3-2.7c-0.7-4.5-2-8.8-3.6-13
			c-0.7-1.9-0.6-3.8,1.4-4.6c1.9-0.7,3.1,0.4,3.9,2.3C298.2,164.3,299.8,168.2,300.1,171.7z"/>
	</g>
	<g>
		<path class="st0" d="M267.7,50.3c-8.7,0-15.8-7.1-15.8-15.8s7.1-15.8,15.8-15.8c8.7,0,15.8,7.1,15.8,15.8S276.4,50.3,267.7,50.3z
			 M267.7,22.7c-6.5,0-11.8,5.3-11.8,11.8s5.3,11.8,11.8,11.8s11.8-5.3,11.8-11.8S274.2,22.7,267.7,22.7z"/>
	</g>
	<g>
		<path class="st0" d="M392,119.9c-8.7,0-15.8-7.1-15.8-15.8c0-8.7,7.1-15.8,15.8-15.8s15.8,7.1,15.8,15.8
			C407.8,112.8,400.7,119.9,392,119.9z M392,92.3c-6.5,0-11.8,5.3-11.8,11.8s5.3,11.8,11.8,11.8s11.8-5.3,11.8-11.8
			S398.5,92.3,392,92.3z"/>
	</g>
	<g>
		<path class="st0" d="M167.3,106.2c-8.7,0-15.8-7.1-15.8-15.8s7.1-15.8,15.8-15.8s15.8,7.1,15.8,15.8
			C183.1,99.1,176,106.2,167.3,106.2z M167.3,78.6c-6.5,0-11.8,5.3-11.8,11.8s5.3,11.8,11.8,11.8s11.8-5.3,11.8-11.8
			S173.8,78.6,167.3,78.6z"/>
	</g>
	<g>
		<path class="st0" d="M323.6,49.2c-3.7,0-6.7-3-6.7-6.7s3-6.7,6.7-6.7s6.7,3,6.7,6.7S327.3,49.2,323.6,49.2z M323.6,37.8
			c-2.6,0-4.7,2.1-4.7,4.7c0,2.6,2.1,4.7,4.7,4.7s4.7-2.1,4.7-4.7C328.3,39.9,326.2,37.8,323.6,37.8z"/>
	</g>
	<g>
		<path class="st0" d="M226.6,51.5c-3.7,0-6.7-3-6.7-6.7s3-6.7,6.7-6.7s6.7,3,6.7,6.7S230.3,51.5,226.6,51.5z M226.6,40.1
			c-2.6,0-4.7,2.1-4.7,4.7c0,2.6,2.1,4.7,4.7,4.7c2.6,0,4.7-2.1,4.7-4.7C231.3,42.2,229.2,40.1,226.6,40.1z"/>
	</g>
	<g>
		<path class="st0" d="M365.8,77.7c-3.7,0-6.7-3-6.7-6.7s3-6.7,6.7-6.7s6.7,3,6.7,6.7S369.5,77.7,365.8,77.7z M365.8,66.3
			c-2.6,0-4.7,2.1-4.7,4.7c0,2.6,2.1,4.7,4.7,4.7s4.7-2.1,4.7-4.7C370.5,68.4,368.4,66.3,365.8,66.3z"/>
	</g>
	<g>
		<path class="st0" d="M202.7,81.2c-3.7,0-6.7-3-6.7-6.7s3-6.7,6.7-6.7s6.7,3,6.7,6.7S206.4,81.2,202.7,81.2z M202.7,69.8
			c-2.6,0-4.7,2.1-4.7,4.7c0,2.6,2.1,4.7,4.7,4.7c2.6,0,4.7-2.1,4.7-4.7C207.4,71.9,205.3,69.8,202.7,69.8z"/>
	</g>
	<g>
		
			<rect x="165.7" y="112.4" transform="matrix(-0.5617 -0.8274 0.8274 -0.5617 189.62 330.1978)" class="st0" width="33.1" height="5"/>
	</g>
	<g>
		
			<rect x="256.6" y="58.8" transform="matrix(-7.669302e-002 -0.9971 0.9971 -7.669302e-002 229.1954 334.7679)" class="st0" width="26.1" height="5"/>
	</g>
	<g>
		
			<rect x="370" y="110.2" transform="matrix(-0.7712 -0.6366 0.6366 -0.7712 580.1309 458.6714)" class="st0" width="5" height="29.7"/>
	</g>
</g>
</svg>
