<?xml version="1.0" encoding="utf-8"?>
<!-- Generator: Adobe Illustrator 19.1.1, SVG Export Plug-In . SVG Version: 6.00 Build 0)  -->
<svg version="1.1" id="Calque_1" xmlns="http://www.w3.org/2000/svg" xmlns:xlink="http://www.w3.org/1999/xlink" x="0px" y="0px"
	 viewBox="66 -49.7 431 398.7" style="enable-background:new 66 -49.7 431 398.7;" xml:space="preserve">
<style type="text/css">
	.st0{fill:#31CDFF;}
	.st1{enable-background:new    ;}
</style>
<g>
	<g>
		<path class="st0" d="M199,145.4c-24,0-43.5-19.5-43.5-43.5h7c0,20.1,16.4,36.5,36.5,36.5s36.5-16.4,36.5-36.5S219.1,65.4,199,65.4
			c-12.7,0-24.7,6.8-31.3,17.8l-6-3.6c7.8-13.1,22.1-21.2,37.3-21.2c24,0,43.5,19.5,43.5,43.5S223,145.4,199,145.4z"/>
	</g>
	<g class="st1">
		<path class="st0" d="M188.6,81.5v-7.1h6.2v7.1H188.6z M188.6,124.6V88.3h6.2v36.3H188.6z"/>
	</g>
	<g>
		<polygon class="st0" points="283,245.7 198,219.5 198,150.9 205,150.9 205,214.4 276,236.2 276,124.3 244.4,111.9 247,105.4 
			283,119.6 		"/>
	</g>
	<g>
		<path class="st0" d="M276,245.7V119.5l85-31.6v131.6L276,245.7z M283,124.4v111.8l71-21.8V98L283,124.4z"/>
	</g>
	<g>
		
			<rect x="242.5" y="131.2" transform="matrix(-0.9409 -0.3387 0.3387 -0.9409 440.4786 346.2101)" class="st0" width="15.9" height="7"/>
	</g>
	<g>
		
			<rect x="219.6" y="158.5" transform="matrix(-0.9466 -0.3223 0.3223 -0.9466 413.619 392.4324)" class="st0" width="39.4" height="7"/>
	</g>
	<g>
		
			<rect x="217.3" y="189.4" transform="matrix(-0.9505 -0.3108 0.3108 -0.9505 401.8556 449.804)" class="st0" width="38.9" height="7"/>
	</g>
	<g>
		
			<rect x="315.4" y="114.6" transform="matrix(-0.3558 -0.9346 0.9346 -0.3558 309.0917 476.7809)" class="st0" width="7" height="34.6"/>
	</g>
	<g>
		
			<rect x="315.4" y="144.6" transform="matrix(-0.3558 -0.9346 0.9346 -0.3558 281.0412 517.4452)" class="st0" width="7" height="34.6"/>
	</g>
	<g>
		
			<rect x="317.4" y="175.6" transform="matrix(-0.3558 -0.9346 0.9346 -0.3558 254.7795 561.343)" class="st0" width="7" height="34.6"/>
	</g>
	<g>
		<path class="st0" d="M265.5,310.9c-91,0-165-74-165-165s74-165,165-165s165,74,165,165c0,38-13.2,75.1-37.3,104.4l-5.4-4.4
			c23-28.1,35.7-63.6,35.7-100c0-87.1-70.9-158-158-158s-158,70.9-158,158s70.9,158,158,158c30.3,0,59.8-8.6,85.1-24.8l3.8,5.9
			C327.9,302,297.2,310.9,265.5,310.9z"/>
	</g>
</g>
</svg>
