<?xml version="1.0" encoding="utf-8"?>
<!-- Generator: Adobe Illustrator 19.1.1, SVG Export Plug-In . SVG Version: 6.00 Build 0)  -->
<svg version="1.1" id="Calque_1" xmlns="http://www.w3.org/2000/svg" xmlns:xlink="http://www.w3.org/1999/xlink" x="0px" y="0px"
	 viewBox="56 -49.7 412 398.7" style="enable-background:new 56 -49.7 412 398.7;" xml:space="preserve">
<style type="text/css">
	.st0{fill:#31CDFF;}
</style>
<g>
	<g>
		<path class="st0" d="M247.3,305.8c-5.8,0-11.7-0.3-17.5-0.9c-44-4.6-83.5-26-111.3-60.4C90.7,210.2,77.9,167,82.5,123
			c4-37.8,21.1-73.4,48.1-100.2l4.9,5c-25.9,25.7-42.2,59.8-46.1,96c-4.4,42.1,7.8,83.4,34.5,116.3c26.6,32.9,64.5,53.4,106.6,57.8
			s83.4-7.8,116.3-34.5c32.9-26.6,53.4-64.5,57.8-106.6s-7.8-83.4-34.5-116.3c-26.6-32.9-64.5-53.4-106.6-57.8
			C233.3-20.5,203-15,175.9-1.4l-3.1-6.3c28.3-14.2,59.9-20,91.4-16.7c44,4.6,83.5,26,111.3,60.4c27.8,34.3,40.6,77.5,36,121.5
			s-26,83.5-60.4,111.3C321.4,293,285.1,305.8,247.3,305.8z"/>
	</g>
	<g>
		<rect x="153.2" y="51.4" class="st0" width="7" height="178"/>
	</g>
	<g>
		<rect x="153.2" y="226.4" class="st0" width="206" height="7"/>
	</g>
	<g>
		<polygon class="st0" points="250.6,220.4 243.6,220.4 243.6,179.9 223.3,179.9 223.3,220.4 216.3,220.4 216.3,172.9 250.6,172.9 
					"/>
	</g>
	<g>
		<polygon class="st0" points="296.5,219.7 289.5,219.7 289.5,140.4 269.3,140.4 269.3,219.7 262.3,219.7 262.3,133.4 296.5,133.4 
					"/>
	</g>
	<g>
		<polygon class="st0" points="339.1,219.7 332.1,219.7 332.1,83.9 311.8,83.9 311.8,219.7 304.8,219.7 304.8,76.9 339.1,76.9 		"/>
	</g>
	<g>
		<polygon class="st0" points="205.9,219.4 198.9,219.4 198.9,206.4 178.6,206.4 178.6,219.4 171.6,219.4 171.6,199.4 205.9,199.4 
					"/>
	</g>
	<g>
		
			<rect x="237.4" y="30.2" transform="matrix(-0.6834 -0.7301 0.7301 -0.6834 345.1982 315.0247)" class="st0" width="7" height="104.9"/>
	</g>
	<g>
		<rect x="251" y="41" transform="matrix(-0.9887 -0.1499 0.1499 -0.9887 523.702 128.47)" class="st0" width="31.4" height="7"/>
	</g>
	<g>
		<rect x="276.2" y="46.4" class="st0" width="7" height="23"/>
	</g>
</g>
</svg>
